<?xml version="1.0" standalone="no"?>
<svg xmlns="http://www.w3.org/2000/svg" viewBox="0 0 142 60" width="142" height="60"><g fill="#f29b18" color="#f29b18" transform="translate(56.495 0) scale(0.31) "><svg width="91.13" height="100.0" x="0.0" y="0.0" viewBox="0 0 91.13 100"><g><path fill="currentColor" stroke="currentColor" stroke-width="2" stroke-linejoin="round" stroke-miterlimit="10" d="M298.371,19.657"></path><path d="M38.982,51.28c-2.616-2.341-6.307-3.633-8.286-3.46c-0.002,0-0.005,0-0.008,0.002c-1.547-1.479-2.15-1.726-4.684-2.22   c-0.402-1.947-1.79-4.434-3.639-5.584c-1.029-0.638-2.107-0.795-3.114-0.446c-0.241,0.082-0.411,0.296-0.438,0.55   c-0.196,1.832-0.458,3.203-0.67,4.306c-0.198,1.033-0.336,1.841-0.345,2.586c-1.402-1.167-2.489-1.915-2.761-2.397   c1.565-1.569,2.694-3.979,3.622-7.723c4.256-1.397,6.531-4.903,5.552-8.635c-0.063-0.237-0.251-0.42-0.491-0.475   c-0.414-0.095-2.566-0.2-10.61,4.324c-0.068,0.04-0.128,0.092-0.18,0.152c-0.541,0.646-1.215,1.372-1.941,2.156   c-2.51,2.71-5.633,6.082-6.415,9.349c-0.029,0.121-0.021,0.249,0.018,0.366c0.037,0.103,3.5,10.163,3.719,12.663   c0.126,1.441,2.787,3.054,7.481,5.781c3.914,2.272,9.273,5.385,9.432,7.204c0.265,3.037-0.158,11.727-7.393,20.442   c-0.068,0.043,8.456,5.067,12.851,4.767c2.368-0.162,4.243-1.323,5.627-3.346c0.052-0.076,0.087-0.164,0.104-0.256   c0.871-4.955,1.619-9.894,2.282-14.251c1.234-8.134,2.301-15.158,3.514-17.916c0.028-0.065,0.046-0.13,0.052-0.199   C42.544,56.132,41.412,53.457,38.982,51.28z M40.966,58.791c-1.263,2.969-2.281,9.677-3.567,18.147   c-0.654,4.31-1.345,9.313-2.202,14.205c-4.687,6.546-15.51-1.328-15.51-1.328c6.721-8.682,7.111-17.073,6.841-20.153   c-0.203-2.317-4.122-4.76-10.078-8.221c-2.692-1.563-6.762-3.926-6.834-4.761c-0.219-2.493-3.228-11.348-3.721-12.792   c0.777-2.885,3.698-6.038,6.055-8.583c0.708-0.763,1.365-1.475,1.906-2.111c5.776-3.242,8.313-3.938,9.199-4.085   c0.492,2.956-1.508,5.582-5.127,6.643c-0.227,0.067-0.399,0.249-0.454,0.476c-0.91,3.811-2.038,6.238-3.548,7.642   c-0.187,0.171-0.281,0.415-0.268,0.681c0.016,0.311,4.313,4.256,4.796,6.762c3.091-1.403,7.187,3.971,7.69,4.328   c0.298,0.207,0.705,0.138,0.912-0.159c0.21-0.296,0.138-0.704-0.157-0.913c-2.981-2.102-7.332-5.523-7.67-6.539   c-0.281-0.842-0.099-1.789,0.2-3.355c0.199-1.035,0.439-2.299,0.635-3.957c0.511-0.073,1.057,0.07,1.61,0.413   c1.598,0.994,2.9,3.445,3.111,5.112c0.036,0.282,0.248,0.506,0.526,0.56c2.839,0.542,3.092,0.621,4.697,2.179   c0.155,0.154,0.374,0.222,0.591,0.172c1.318-0.279,4.924,0.788,7.508,3.103C39.561,53.557,41.227,55.742,40.966,58.791z"></path><path d="M86.556,43.765c-0.781-3.268-3.905-6.639-6.415-9.349c-0.726-0.784-1.4-1.51-1.941-2.156   c-0.052-0.06-0.112-0.112-0.18-0.152c-8.044-4.524-10.197-4.419-10.61-4.324c-0.24,0.054-0.428,0.237-0.491,0.475   c-0.979,3.732,1.295,7.238,5.553,8.635c0.927,3.744,2.055,6.154,3.621,7.723c-0.271,0.482-1.358,1.23-2.761,2.397   c-0.009-0.745-0.148-1.553-0.345-2.586c-0.212-1.103-0.474-2.474-0.671-4.306c-0.026-0.254-0.196-0.468-0.437-0.55   c-1.006-0.35-2.085-0.192-3.114,0.447c-1.85,1.149-3.237,3.636-3.639,5.583c-2.534,0.495-3.138,0.742-4.684,2.22   c-0.003-0.002-0.006-0.002-0.008-0.002c-1.979-0.173-5.67,1.119-8.287,3.46c-2.428,2.177-3.561,4.852-3.277,7.739   c0.006,0.069,0.024,0.134,0.052,0.199c1.213,2.758,2.279,9.782,3.514,17.916c0.661,4.357,1.411,9.296,2.282,14.251   c0.017,0.092,0.052,0.18,0.104,0.256c1.384,2.022,3.259,3.184,5.627,3.346c4.395,0.301,12.918-4.724,12.851-4.767   c-7.236-8.716-7.659-17.405-7.393-20.442c0.159-1.818,5.518-4.932,9.432-7.204c4.694-2.727,7.354-4.337,7.481-5.781   c0.219-2.5,3.682-12.561,3.717-12.663C86.577,44.013,86.584,43.886,86.556,43.765z M81.514,56.679   c-0.072,0.835-4.142,3.198-6.834,4.761c-5.957,3.461-9.875,5.904-10.079,8.221c-0.269,3.08,0.121,11.472,6.842,20.153   c0,0-10.824,7.874-15.51,1.328c-0.857-4.893-1.548-9.896-2.202-14.205c-1.287-8.47-2.304-15.178-3.567-18.147   c-0.26-3.049,1.405-5.234,2.859-6.535c2.584-2.315,6.19-3.382,7.507-3.103c0.218,0.05,0.437-0.019,0.591-0.172   c1.606-1.558,1.859-1.637,4.698-2.179c0.278-0.054,0.49-0.278,0.526-0.56c0.211-1.667,1.513-4.119,3.11-5.112   c0.554-0.343,1.1-0.485,1.61-0.413c0.196,1.658,0.437,2.922,0.635,3.957c0.299,1.566,0.481,2.513,0.201,3.355   c-0.338,1.016-4.689,4.437-7.671,6.539c-0.294,0.208-0.366,0.616-0.156,0.913c0.207,0.297,0.614,0.366,0.912,0.159   c0.503-0.357,4.599-5.73,7.69-4.328c0.484-2.506,4.781-6.451,4.796-6.762c0.013-0.266-0.081-0.51-0.268-0.681   c-1.51-1.404-2.638-3.831-3.548-7.642c-0.055-0.228-0.228-0.409-0.454-0.476c-3.62-1.061-5.619-3.687-5.127-6.643   c0.886,0.147,3.422,0.844,9.199,4.085c0.54,0.636,1.198,1.348,1.906,2.111c2.356,2.545,5.278,5.699,6.055,8.583   C84.741,45.331,81.732,54.187,81.514,56.679z"></path><path d="M50.38,38.197c0.264,0.276,0.415,0.577,0.415,0.893c0,1.333-2.593,2.414-5.791,2.414c-3.199,0-5.791-1.081-5.791-2.414   c0-0.316,0.149-0.617,0.414-0.893c0.852,0.893,2.937,1.521,5.377,1.521C47.445,39.718,49.53,39.09,50.38,38.197z M45.004,45.201   c-1.62,0-3.084-0.28-4.134-0.727c-0.032,0.091-0.049,0.187-0.049,0.28c0,1.049,1.873,1.896,4.183,1.896s4.182-0.847,4.182-1.896   c0-0.093-0.018-0.189-0.047-0.28C48.087,44.92,46.624,45.201,45.004,45.201z M45.004,42.637c-2.44,0-4.525-0.631-5.377-1.522   c-0.264,0.277-0.414,0.578-0.414,0.893c0,1.335,2.592,2.416,5.791,2.416c3.198,0,5.791-1.081,5.791-2.416   c0-0.315-0.15-0.616-0.415-0.893C49.53,42.006,47.445,42.637,45.004,42.637z M55.508,19.977c0,2.043-0.597,3.947-1.611,5.563   c-0.055,0.09-0.104,0.183-0.164,0.271c-0.231,0.343-0.485,0.67-0.754,0.986c-1.013,1.508-2.118,3.964-2.528,7.241v1.473   c0.217,0.252,0.344,0.523,0.344,0.807c0,1.026-1.537,1.9-3.7,2.25c-0.491,0.078-1.011,0.133-1.555,0.153   c-0.178,0.007-0.355,0.013-0.536,0.013c-0.197,0-0.391-0.006-0.583-0.015c-0.545-0.021-1.066-0.076-1.556-0.159   c-2.138-0.354-3.651-1.223-3.651-2.242c0-0.284,0.127-0.557,0.345-0.809v-1.677c-0.422-3.11-1.468-5.458-2.441-6.941   c-0.319-0.364-0.614-0.747-0.883-1.15c-0.04-0.06-0.076-0.125-0.114-0.185c-1.023-1.617-1.62-3.525-1.62-5.578   c0-5.791,4.713-10.504,10.504-10.504C50.796,9.473,55.508,14.186,55.508,19.977z M45.54,23.406c0-0.311-0.251-0.558-0.561-0.558   c-0.308,0-0.559,0.248-0.559,0.558v1.629v1.556v2.3v1.561v5.475v0.998c0.194,0.008,0.385,0.023,0.583,0.023   c0.183,0,0.357-0.015,0.536-0.023v-0.998v-5.473v-1.561v-2.302v-1.556V23.406z M53.953,19.977c0-4.934-4.014-8.949-8.949-8.949   c-4.935,0-8.948,4.015-8.948,8.949c0,1.772,0.525,3.425,1.42,4.814c0.292,0.325,0.589,0.706,0.881,1.139   c0.419,0.62,0.827,1.347,1.201,2.174c0.156,0.345,0.306,0.709,0.449,1.088c0.492,1.317,0.886,2.833,1.107,4.525   c0.092,0.708,0.151,1.446,0.177,2.21c0.004,0.149,0.006,0.304,0.01,0.455c0.465,0.161,0.994,0.289,1.564,0.387v-0.842v-5.674   v-1.599v-2.063v-1.556v-1.629c0-1.167,0.95-2.116,2.115-2.116c1.166,0,2.116,0.948,2.116,2.116v1.629v1.556v2.078v1.595v5.663   v0.849c0.599-0.095,1.154-0.233,1.637-0.405c0.005-0.147,0.006-0.294,0.012-0.444c0.021-0.688,0.073-1.352,0.15-1.995   c0.215-1.775,0.617-3.362,1.129-4.729c0.136-0.364,0.278-0.711,0.428-1.046c0.389-0.866,0.814-1.626,1.252-2.267   c0.262-0.386,0.527-0.731,0.79-1.03C53.413,23.454,53.953,21.777,53.953,19.977z"></path><path d="M52.817,7.897c0.432-0.538,1.078-0.85,1.769-0.85c0.512,0,1.014,0.178,1.415,0.499c0.216,0.172,0.413,0.354,0.618,0.531   c0.007,0.153,0.001,0.311-0.032,0.482c-0.028,0.149-0.073,0.304-0.131,0.458c-0.051,0.139-0.114,0.28-0.188,0.42   c-0.04,0.075-0.087,0.149-0.132,0.224c-0.343-0.321-0.699-0.633-1.078-0.936c-0.14-0.111-0.306-0.166-0.472-0.166   c-0.222,0-0.441,0.095-0.59,0.284c-0.261,0.324-0.208,0.8,0.118,1.06c0.354,0.284,0.687,0.58,1.006,0.88   c-0.052,0.04-0.104,0.086-0.158,0.122c-0.177,0.119-0.577,0.313-0.601,0.323c-0.185,0.068-0.364,0.118-0.535,0.128   c-0.146,0.011-0.278-0.015-0.403-0.054c-0.086-0.073-0.166-0.147-0.255-0.219C52.194,10.304,52.036,8.875,52.817,7.897z    M60.81,25.875c-3.758,6.265-3.743,8.525-3.712,13.488l0.005,1.465c0,0.068-0.079,0.556-0.082,0.568   c-0.07,0.271-2.034,4.241-2.034,4.241l-1.924-3.436l-0.376-0.671c-0.044-0.078-0.116-0.563-0.116-0.698l-0.006-1.446   c-0.034-5.293-0.054-8.491,4.358-15.844c1.827-3.043,1.272-6.802-1.284-9.974c-0.211,0.015-0.414-0.179-0.414-0.179   s-1.295-1.182-1.308-1.195c-0.171-0.155-0.268-0.375-0.31-0.626c0.021,0.008,0.046,0.01,0.069,0.018   c0.124,0.039,0.256,0.065,0.402,0.054c0.17-0.011,0.35-0.06,0.535-0.128c0.023-0.008,0.046-0.022,0.071-0.034   c0.175-0.07,0.352-0.168,0.527-0.289c0.055-0.035,0.105-0.082,0.158-0.121c0.226-0.167,0.446-0.357,0.648-0.596   c0.144-0.169,0.262-0.347,0.369-0.526c0.045-0.075,0.092-0.149,0.131-0.224c0.074-0.14,0.137-0.282,0.188-0.42   c0.057-0.155,0.104-0.31,0.132-0.457c0.033-0.172,0.027-0.631,0.015-0.701c0.118,0.042,0.384,0.222,0.384,0.222l1.231,1.138   c0.193,0.185,0.29,0.452,0.312,0.761C62.893,14.994,63.769,20.947,60.81,25.875z M57.182,11.747   c0.172-0.201,0.289-0.396,0.383-0.578c0.203-0.4,0.258-0.732,0.232-0.876l-0.403-0.366c-0.058,0.189-0.287,0.663-0.313,0.708   c-0.121,0.217-0.26,0.432-0.433,0.635c-0.172,0.206-0.606,0.574-0.636,0.598c-0.179,0.134-0.356,0.244-0.534,0.334   c0,0,0.428,0.372,0.442,0.37c0.164-0.012,0.39-0.101,0.633-0.261C56.758,12.177,56.976,11.994,57.182,11.747z M55.798,41.599   l-0.351-0.35l-0.715-0.718l-0.592,0.591l-0.338,0.337l0.774,1.383h0.629L55.798,41.599z M59.515,25.099   c2.451-4.085,1.878-9.001-1.264-13.098c-0.094,0.148-0.201,0.293-0.319,0.434c-0.232,0.274-0.485,0.491-0.743,0.674   c2.633,3.566,3.106,7.752,1.03,11.212c-4.193,6.99-4.175,9.854-4.143,15.058l0.002,0.384l0.654-0.655l0.857,0.857l-0.003-0.596   C55.555,34.279,55.539,31.726,59.515,25.099z"></path><path d="M34.542,27.151c-0.102-0.2-0.205-0.396-0.306-0.59c-1.04-1.994-1.862-3.568-1.927-5.592   c-0.127-4.057,0.502-4.936,2.706-7.354c0.335-0.37,0.507-0.932,0.474-1.548c-0.047-0.859-0.486-1.698-1.237-2.359   c-0.651-0.573-1.684-0.635-2.098-0.635c-0.548,0-1.555,0.101-2.126,0.772c-2.957,3.479-3.044,7.823-2.853,10.786   c0.177,2.754,1.178,5.274,3.246,8.17c0.3,0.424,0.598,0.816,0.886,1.195c1.436,1.893,2.472,3.26,2.452,6.063   c-0.013,1.669,0.202,3.28,0.21,3.35l0.876,6.51l1.499-6.397c0.021-0.085,0.496-2.13,0.538-3.829   c0.094-3.856-0.351-4.713-2.005-7.896L34.542,27.151z M35.673,35.665c-0.039,1.591-0.505,3.582-0.505,3.582   s-0.212-1.574-0.201-3.178c0.029-3.841-1.784-5.474-3.563-7.966c-1.683-2.361-2.839-4.708-3.023-7.547   c-0.209-3.236,0.034-6.944,2.568-9.926c0.201-0.235,0.695-0.347,1.204-0.347c0.518,0,1.051,0.115,1.298,0.334   c1.047,0.922,0.893,1.938,0.667,2.184c-2.409,2.644-3.157,3.823-3.019,8.208c0.081,2.517,1.188,4.414,2.368,6.699   C35.381,31.406,35.764,31.886,35.673,35.665z M35.749,5.354c-1.415,0.77-1.937,2.54-1.167,3.953   c0.769,1.415,2.54,1.938,3.953,1.167c1.415-0.769,3.393-5.165,3.393-5.165S37.162,4.585,35.749,5.354z M38.311,8.504   c-0.156,0.159-0.15,0.417,0.008,0.569c0.003,0.002,0.006,0.004,0.009,0.005c-0.14,0.157-0.267,0.277-0.371,0.335   c-0.827,0.448-1.865,0.142-2.314-0.684c-0.45-0.827-0.144-1.863,0.683-2.313c0.225-0.123,0.729-0.185,1.375-0.201   c-0.898,0.997-0.818,1.432-0.717,1.619c0.018,0.034,0.036,0.057,0.049,0.075c0.293,0.407,0.885,0.25,1.683-0.109   c0.114-0.05,0.211-0.089,0.292-0.121C38.835,7.921,38.577,8.228,38.311,8.504z"></path></g></svg></g><line x1="57.34235900000001" y1="37" x2="83.89764100000001" y2="37" stroke="#01427c" stroke-linecap="round"></line><path fill="#01427c" fill-rule="nonzero" d="M6.22 0.50Q10.18 0.50 12.76 2.15Q15.34 3.79 15.34 8.26L15.34 8.26Q15.34 13.32 12.44 15.05Q9.55 16.78 6.22 16.78L6.22 16.78Q1.80 16.78 0 16.85L0 16.85Q0 16.15 0.12 15.82L0.12 15.82Q0.79 15.77 1.14 15.58Q1.49 15.38 1.64 14.89Q1.80 14.40 1.80 13.46L1.80 13.46L1.80 3.60Q1.80 2.40 1.45 1.98Q1.10 1.56 0.14 1.51L0.14 1.51Q0.02 1.18 0.02 0.48L0.02 0.48Q1.13 0.55 3.38 0.55L3.38 0.55L4.80 0.53Q5.28 0.50 6.22 0.50L6.22 0.50ZM6.22 15.70Q9.34 15.70 11.10 14.08Q12.86 12.46 12.86 8.62L12.86 8.62Q12.86 6.14 11.89 4.52Q10.92 2.90 9.34 2.16Q7.75 1.42 5.83 1.42L5.83 1.42Q5.40 1.42 4.88 1.48Q4.37 1.54 4.06 1.63L4.06 1.63L4.06 13.46Q4.06 14.40 4.22 14.86Q4.39 15.31 4.85 15.50Q5.30 15.70 6.22 15.70L6.22 15.70ZM18 16.82Q18 16.08 18.12 15.74L18.12 15.74Q18.72 15.70 19.02 15.55Q19.32 15.41 19.44 15.05Q19.56 14.69 19.56 13.97L19.56 13.97L19.56 7.56Q19.56 6.86 19.44 6.50Q19.32 6.14 19.02 6Q18.72 5.86 18.12 5.81L18.12 5.81Q18 5.45 18 4.73L18 4.73Q19.54 4.78 20.69 4.78L20.69 4.78Q21.65 4.78 23.33 4.73L23.33 4.73Q23.33 5.47 23.23 5.81L23.23 5.81Q22.37 5.86 22.07 6.19Q21.77 6.53 21.77 7.56L21.77 7.56L21.77 13.97Q21.77 15 22.07 15.35Q22.37 15.70 23.23 15.74L23.23 15.74Q23.33 16.10 23.33 16.82L23.33 16.82Q21.70 16.78 20.69 16.78L20.69 16.78Q19.49 16.78 18 16.82L18 16.82ZM31.97 16.94Q30.65 16.94 29.58 16.68Q28.51 16.42 27.26 15.89L27.26 15.89Q27.53 14.28 27.46 13.10L27.46 13.10Q27.98 12.94 28.75 12.94L28.75 12.94Q28.80 14.42 29.70 15.10Q30.60 15.77 32.23 15.77L32.23 15.77Q33.62 15.77 34.43 15.34Q35.23 14.90 35.23 14.18L35.23 14.18Q35.23 13.68 34.84 13.31Q34.44 12.94 33.88 12.68Q33.31 12.43 32.23 12.05L32.23 12.05Q30.74 11.54 29.84 11.10Q28.94 10.66 28.28 9.88Q27.62 9.10 27.62 7.92L27.62 7.92Q27.62 6.31 28.84 5.47Q30.05 4.63 32.16 4.63L32.16 4.63Q33.29 4.63 34.40 4.85Q35.52 5.06 36.14 5.40L36.14 5.40Q36.12 5.66 36.12 6.22L36.12 6.22Q36.12 7.30 36.26 7.92L36.26 7.92Q35.76 8.18 34.94 8.18L34.94 8.18Q34.61 6.82 33.85 6.28Q33.10 5.74 31.99 5.74L31.99 5.74Q30.94 5.74 30.28 6.10Q29.62 6.46 29.62 7.15L29.62 7.15Q29.62 7.94 30.38 8.42Q31.15 8.90 32.78 9.48L32.78 9.48Q34.18 9.96 35.06 10.39Q35.95 10.82 36.58 11.56Q37.20 12.29 37.20 13.39L37.20 13.39Q37.20 14.98 35.90 15.96Q34.61 16.94 31.97 16.94L31.97 16.94ZM50.57 13.37Q51.22 13.49 51.62 13.90L51.62 13.90Q51.19 15.02 50.98 16.80L50.98 16.80L46.34 16.78Q42.89 16.78 40.78 16.82L40.78 16.82Q40.78 16.08 40.90 15.74L40.90 15.74Q41.50 15.70 41.80 15.55Q42.10 15.41 42.22 15.02Q42.34 14.64 42.34 13.87L42.34 13.87L42.34 7.56Q42.34 6.86 42.20 6.50Q42.07 6.14 41.77 6Q41.47 5.86 40.90 5.81L40.90 5.81Q40.78 5.45 40.78 4.73L40.78 4.73Q42.50 4.78 44.54 4.78L44.54 4.78Q48.96 4.78 50.45 4.73L50.45 4.73Q50.71 6.98 50.90 7.70L50.90 7.70Q50.50 7.97 49.82 7.97L49.82 7.97Q49.73 6.96 49.00 6.38Q48.26 5.81 46.42 5.81L46.42 5.81L44.54 5.81L44.54 10.22L45.74 10.22Q47.02 10.22 47.51 9.94Q48 9.65 48.02 8.88L48.02 8.88Q48.55 8.71 49.13 8.71L49.13 8.71Q49.08 9.31 49.08 10.73L49.08 10.73Q49.08 12.26 49.13 12.82L49.13 12.82Q48.48 12.82 48.07 12.67L48.07 12.67Q48 11.88 47.51 11.59Q47.02 11.30 45.74 11.30L45.74 11.30L44.54 11.30L44.54 13.82Q44.54 14.59 44.70 14.99Q44.86 15.38 45.25 15.54Q45.65 15.70 46.44 15.70L46.44 15.70L46.58 15.70Q47.98 15.70 48.73 15.46Q49.49 15.22 49.86 14.75Q50.23 14.28 50.57 13.37L50.57 13.37ZM66.55 4.78Q67.46 4.78 68.57 4.73L68.57 4.73Q68.57 5.45 68.47 5.81L68.47 5.81Q67.97 5.86 67.70 6.07Q67.44 6.29 67.33 6.80Q67.22 7.32 67.22 8.33L67.22 8.33L67.22 16.80Q66.91 16.94 66.24 16.94L66.24 16.94L57.62 7.42L57.62 13.18Q57.62 14.21 57.76 14.74Q57.89 15.26 58.20 15.48Q58.51 15.70 59.11 15.74L59.11 15.74Q59.23 16.13 59.23 16.82L59.23 16.82Q57.94 16.78 57.10 16.78L57.10 16.78Q55.97 16.78 54.91 16.82L54.91 16.82Q54.91 16.13 55.03 15.74L55.03 15.74Q55.63 15.70 55.93 15.48Q56.23 15.26 56.36 14.74Q56.50 14.21 56.50 13.18L56.50 13.18L56.50 6.17L56.47 6.14Q56.30 5.98 56.04 5.92Q55.78 5.86 55.03 5.81L55.03 5.81Q54.91 5.38 54.91 4.73L54.91 4.73Q55.78 4.78 56.59 4.78L56.59 4.78Q57.34 4.78 58.10 4.73L58.10 4.73L66.10 13.68L66.10 8.33Q66.10 7.32 65.96 6.80Q65.83 6.29 65.52 6.07Q65.21 5.86 64.58 5.81L64.58 5.81Q64.49 5.26 64.49 4.73L64.49 4.73Q65.69 4.78 66.55 4.78L66.55 4.78ZM63.19 2.50Q62.86 2.50 62.51 2.38Q62.16 2.26 61.63 2.02L61.63 2.02Q61.13 1.75 60.72 1.61Q60.31 1.46 59.88 1.46L59.88 1.46Q58.94 1.46 58.03 2.40L58.03 2.40Q57.74 2.18 57.74 1.68L57.74 1.68Q58.44 0.77 59.09 0.38Q59.74 0 60.41 0L60.41 0Q60.74 0 61.07 0.11Q61.39 0.22 61.68 0.34Q61.97 0.46 62.06 0.50L62.06 0.50Q62.57 0.74 62.90 0.86Q63.24 0.98 63.60 0.98L63.60 0.98Q64.37 0.98 65.02 0.24L65.02 0.24Q65.16 0.24 65.36 0.31Q65.57 0.38 65.69 0.50L65.69 0.50Q64.56 2.50 63.19 2.50L63.19 2.50ZM78.70 16.99Q76.63 16.99 75.05 16.22Q73.46 15.46 72.59 14.06Q71.71 12.67 71.71 10.82L71.71 10.82Q71.71 9 72.59 7.58Q73.46 6.17 75.06 5.39Q76.66 4.61 78.74 4.61L78.74 4.61Q80.81 4.61 82.39 5.38Q83.98 6.14 84.85 7.55Q85.73 8.95 85.73 10.78L85.73 10.78Q85.73 12.62 84.85 14.03Q83.98 15.43 82.38 16.21Q80.78 16.99 78.70 16.99L78.70 16.99ZM79.03 15.89Q80.98 15.89 82.12 14.59Q83.26 13.30 83.26 11.14L83.26 11.14Q83.26 9.58 82.63 8.34Q82.01 7.10 80.89 6.41Q79.78 5.71 78.38 5.71L78.38 5.71Q76.44 5.71 75.31 7.02Q74.18 8.33 74.18 10.46L74.18 10.46Q74.18 12.07 74.81 13.31Q75.43 14.54 76.54 15.22Q77.64 15.89 79.03 15.89L79.03 15.89ZM111.05 4.78Q111.94 4.78 113.09 4.73L113.09 4.73Q113.09 5.30 112.92 5.81L112.92 5.81Q112.37 5.95 112.02 6.44Q111.67 6.94 111.17 8.35L111.17 8.35L108.12 16.80Q107.74 16.94 107.11 16.94L107.11 16.94Q106.27 14.95 104.47 11.47L104.47 11.47L102.96 8.42L99.46 16.82Q99.12 16.94 98.42 16.94L98.42 16.94Q97.08 13.37 94.73 8.02L94.73 8.02Q94.25 6.91 94.04 6.53Q93.84 6.14 93.64 6.01Q93.43 5.88 93.05 5.83L93.05 5.83Q92.93 5.40 92.93 4.73L92.93 4.73Q94.27 4.78 95.42 4.78L95.42 4.78Q96.50 4.78 98.09 4.73L98.09 4.73Q98.09 5.33 97.99 5.81L97.99 5.81Q97.25 5.86 96.94 6.01Q96.62 6.17 96.62 6.50L96.62 6.50Q96.62 6.86 97.03 7.75L97.03 7.75Q97.39 8.54 97.94 9.67L97.94 9.67Q99.05 11.95 99.53 13.10L99.53 13.10L103.06 4.75Q103.37 4.63 104.06 4.63L104.06 4.63Q104.54 5.64 105.55 7.66L105.55 7.66Q107.38 11.30 108.19 13.13L108.19 13.13L110.11 8.33Q110.45 7.39 110.45 6.91L110.45 6.91Q110.45 6.41 110.12 6.16Q109.80 5.90 109.10 5.81L109.10 5.81Q108.94 5.33 108.94 4.73L108.94 4.73Q110.14 4.78 111.05 4.78L111.05 4.78ZM125.78 13.37Q126.43 13.49 126.84 13.90L126.84 13.90Q126.41 15.02 126.19 16.80L126.19 16.80L121.56 16.78Q118.10 16.78 115.99 16.82L115.99 16.82Q115.99 16.08 116.11 15.74L116.11 15.74Q116.71 15.70 117.01 15.55Q117.31 15.41 117.43 15.02Q117.55 14.64 117.55 13.87L117.55 13.87L117.55 7.56Q117.55 6.86 117.42 6.50Q117.29 6.14 116.99 6Q116.69 5.86 116.11 5.81L116.11 5.81Q115.99 5.45 115.99 4.73L115.99 4.73Q117.72 4.78 119.76 4.78L119.76 4.78Q124.18 4.78 125.66 4.73L125.66 4.73Q125.93 6.98 126.12 7.70L126.12 7.70Q125.71 7.97 125.04 7.97L125.04 7.97Q124.94 6.96 124.21 6.38Q123.48 5.81 121.63 5.81L121.63 5.81L119.76 5.81L119.76 10.22L120.96 10.22Q122.23 10.22 122.72 9.94Q123.22 9.65 123.24 8.88L123.24 8.88Q123.77 8.71 124.34 8.71L124.34 8.71Q124.30 9.31 124.30 10.73L124.30 10.73Q124.30 12.26 124.34 12.82L124.34 12.82Q123.70 12.82 123.29 12.67L123.29 12.67Q123.22 11.88 122.72 11.59Q122.23 11.30 120.96 11.30L120.96 11.30L119.76 11.30L119.76 13.82Q119.76 14.59 119.92 14.99Q120.07 15.38 120.47 15.54Q120.86 15.70 121.66 15.70L121.66 15.70L121.80 15.70Q123.19 15.70 123.95 15.46Q124.70 15.22 125.08 14.75Q125.45 14.28 125.78 13.37L125.78 13.37ZM137.11 10.27Q139.01 10.39 140.12 11.15Q141.24 11.90 141.24 13.37L141.24 13.37Q141.24 14.93 139.93 15.85Q138.62 16.78 136.01 16.78L136.01 16.78Q132.48 16.78 130.13 16.82L130.13 16.82Q130.13 16.08 130.25 15.74L130.25 15.74Q130.82 15.70 131.14 15.55Q131.45 15.41 131.58 15.02Q131.71 14.64 131.71 13.87L131.71 13.87L131.71 7.56Q131.71 6.86 131.58 6.50Q131.45 6.14 131.15 6Q130.85 5.86 130.25 5.81L130.25 5.81Q130.15 5.42 130.15 4.73L130.15 4.73Q131.26 4.78 132.34 4.78L132.34 4.78L134.11 4.75Q134.62 4.73 135.41 4.73L135.41 4.73Q137.64 4.73 138.91 5.38Q140.18 6.02 140.18 7.39L140.18 7.39Q140.18 8.52 139.36 9.31Q138.53 10.10 137.11 10.27L137.11 10.27ZM137.83 7.94Q137.83 5.81 134.90 5.81L134.90 5.81Q134.40 5.81 133.92 5.90L133.92 5.90L133.92 9.98L134.59 9.98Q136.39 9.98 137.11 9.46Q137.83 8.93 137.83 7.94L137.83 7.94ZM135.67 15.72Q138.74 15.72 138.74 13.63L138.74 13.63Q138.74 11.14 134.40 11.14L134.40 11.14L133.92 11.14L133.92 13.94Q133.92 15.02 134.28 15.37Q134.64 15.72 135.67 15.72L135.67 15.72Z" transform="translate(0, 43)"></path></svg>